inDegrees=yes
name=ik_S51_A05_T03
DataType=double
version=3
OpenSimVersion=4.3-2021-08-27-4bc7ad9
endheader
time	pelvis_tilt	pelvis_list	pelvis_rotation	pelvis_tx	pelvis_ty	pelvis_tz	hip_flexion_r	hip_adduction_r	hip_rotation_r	knee_angle_r	knee_angle_r_beta	ankle_angle_r	subtalar_angle_r	mtp_angle_r	hip_flexion_l	hip_adduction_l	hip_rotation_l	knee_angle_l	knee_angle_l_beta	ankle_angle_l	subtalar_angle_l	mtp_angle_l	lumbar_extension	lumbar_bending	lumbar_rotation	arm_flex_r	arm_add_r	arm_rot_r	elbow_flex_r	pro_sup_r	wrist_flex_r	wrist_dev_r	arm_flex_l	arm_add_l	arm_rot_l	elbow_flex_l	pro_sup_l	wrist_flex_l	wrist_dev_l
0	0	0	0	0	0.9399999999999999	0	0	0	0	0	0	0	0	0	0	0	0	0	0	0	0	0	0	0	0	0	0	0	0	89.99999999963507	0	0	0	0	0	0	89.99999999869995	0	0
0.02	-6.280023372824063	1.222836582151925	24.78854867407389	0	0.9399999999999999	0	4.389459220839546	-2.053128977019691	-1.477882440048006	6.648243734919098	0.1160337426494234	0	0	0	4.389459220839546	-2.053128977019691	-1.477882440048006	6.648243734919098	0.1160337426494234	0	0	0	-0.8553673756310515	-2.749470115794871	6.09049214263553	24.12026845604069	-15.30027967102455	-20.52386393611465	52.35920779688406	156.1106360561472	0	0	33.00182058501985	1.712854454093163	-8.667377506406487	38.80751318680255	157.9581322142792	0	0
0.04	-6.279506481613254	1.223995077501908	24.78209755367147	0	0.9399999999999999	0	4.493627059983676	-2.098141291880677	-1.515998136693624	6.730793128728518	0.1174745013669232	0	0	0	4.493627059983676	-2.098141291880677	-1.515998136693624	6.730793128728518	0.1174745013669232	0	0	0	-0.8641072165294508	-2.735023155516497	6.096365308398918	24.11269650084705	-15.30947118400402	-20.59609877315923	52.37886302446706	156.1992404405957	0	0	32.99141734585175	1.717391840236135	-8.697965507718957	38.84031259437879	157.9278778595664	0	0
0.06	-6.27550940730217	1.218141577392934	24.78517430605782	0	0.9399999999999999	0	4.570182462296227	-2.117790343158486	-1.544890726372619	6.736510992990011	0.1175742969244683	0	0	0	4.570182462296227	-2.117790343158486	-1.544890726372619	6.736510992990011	0.1175742969244683	0	0	0	-0.8734384935988045	-2.725476400867343	6.070507956348229	24.09587184452839	-15.30793077392903	-20.6560067430215	52.4603645534781	156.3148371108862	0	1.077613842297402e-35	32.98807213976804	1.709896181150343	-8.862689570296657	38.87804108832835	158.068124404339	0	1.077613842297402e-35
0.08	-6.278676819734253	1.222112027746662	24.78929669399503	0	0.9399999999999999	0	4.579437699969198	-2.122086856796972	-1.549421535244254	6.732277350758529	0.1175004059281775	0	0	0	4.579437699969198	-2.122086856796972	-1.549421535244254	6.732277350758529	0.1175004059281775	0	0	0	-0.8760884660078428	-2.718237261767637	6.055867341726171	24.06176813661493	-15.29151717522905	-20.64981416062968	52.48276504412905	156.4674731237879	0	0	32.9919727868804	1.720118892000254	-8.944159350814374	38.8284225309327	158.1518273753198	0	0
0.1	-6.274626637604064	1.217225513855381	24.79508095118819	0	0.9399999999999999	0	4.70830235177444	-2.187246080752384	-1.594824355702191	6.882467743018892	0.1201217227779826	0	0	0	4.70830235177444	-2.187246080752384	-1.594824355702191	6.882467743018892	0.1201217227779826	0	0	0	-0.8822825945426414	-2.712753499829918	6.040296410078065	24.03601694252978	-15.3014943690201	-20.54729191250745	52.62129468419521	156.445783339835	0	0	32.96579952882198	1.691434561049205	-8.85294661962998	38.8785850326612	158.0170584530219	0	0
0.12	-6.278074013085371	1.216276265683063	24.79105158883362	0	0.9399999999999999	0	4.727326833296829	-2.196754911232206	-1.601345169367882	6.906323834098221	0.1205380901139726	0	0	0	4.727326833296829	-2.196754911232206	-1.601345169367882	6.906323834098221	0.1205380901139726	0	0	0	-0.8866805101179768	-2.710505503944668	6.026779197906372	24.01590346393315	-15.34543729531953	-20.40872986095034	52.74750006979151	156.4510416529259	0	0	32.94698753801997	1.690294779849326	-8.767155952826762	38.69255588290367	157.7270863397055	0	0
0.14	-6.244741979655926	1.178740160219353	24.8216635898944	0	0.9399999999999999	0	6.099257395324664	-2.874668385184753	-2.080910558232122	8.507806564731721	0.1484892366773566	0	0	0	6.099257395324664	-2.874668385184753	-2.080910558232122	8.507806564731721	0.1484892366773566	0	0	0	-0.9609454921061643	-2.627700643257694	5.969485825926879	24.0518436619248	-15.47500863917249	-20.22385171991846	52.99526469404672	156.2423426629896	0	0	32.9998737106097	1.717193199033288	-8.733546377378671	38.68773027139529	157.7027319331754	0	0
0.16	-6.237941207335608	1.171387772960447	24.83465993508687	0	0.9399999999999999	0	6.196168483022779	-2.912997913814982	-2.115085120910825	8.584658901966035	0.1498305629999484	0	0	0	6.196168483022779	-2.912997913814982	-2.115085120910825	8.584658901966035	0.1498305629999484	0	0	0	-0.9666207613492847	-2.624182779796891	5.954341220638389	24.05834231008997	-15.47577693177018	-20.19901556932917	53.06114397790657	156.2985763175245	0	0	32.98882023978143	1.704720354708337	-8.716310235960076	38.72848610119785	157.6834623616874	0	0
0.18	-6.241058079951503	1.16400130242861	24.79993393778326	0	0.9399999999999999	0	6.201326091027121	-2.915458623369574	-2.116845276207227	8.590842786327018	0.1499384921426102	1.754254580884319e-35	0	0	6.201326091027121	-2.915458623369574	-2.116845276207227	8.590842786327018	0.1499384921426102	1.754254580884319e-35	0	0	-0.9728508123904998	-2.629174494322449	5.9566435538672	24.08252581227819	-15.60819115121917	-20.22136329300302	53.0913976938088	156.3577361061485	0	0	33.00460881917509	1.649681046543333	-8.760231371574582	38.72519620665972	157.6683621778857	0	0
